<?xml version="1.0" encoding="UTF-8" standalone="no"?>
<!-- Created with Inkscape (http://www.inkscape.org/) -->

<svg
   width="198.4046"
   height="147.1842"
   viewBox="0 0 52.49455 38.942487"
   version="1.1"
   id="svg1"
   xmlns:inkscape="http://www.inkscape.org/namespaces/inkscape"
   xmlns:sodipodi="http://sodipodi.sourceforge.net/DTD/sodipodi-0.dtd"
   xmlns:xlink="http://www.w3.org/1999/xlink"
   xmlns="http://www.w3.org/2000/svg"
   xmlns:svg="http://www.w3.org/2000/svg">
  <sodipodi:namedview
     id="namedview1"
     pagecolor="#ffffff"
     bordercolor="#000000"
     borderopacity="0.25"
     inkscape:showpageshadow="false"
     inkscape:pageopacity="0.0"
     inkscape:pagecheckerboard="0"
     inkscape:deskcolor="#d1d1d1"
     inkscape:document-units="px"
     showborder="false"
     borderlayer="false" />
  <defs
     id="defs1">
    <linearGradient
       id="linearGradient2214"
       inkscape:collect="always">
      <stop
         style="stop-color:#1e293b;stop-opacity:1;"
         offset="0"
         id="stop2215" />
      <stop
         style="stop-color:#cbd5e1;stop-opacity:0.33228841;"
         offset="1"
         id="stop2216" />
    </linearGradient>
    <linearGradient
       inkscape:collect="always"
       xlink:href="#linearGradient2214"
       id="linearGradient2216"
       x1="67.161629"
       y1="112.17514"
       x2="119.65618"
       y2="112.17514"
       gradientUnits="userSpaceOnUse"
       spreadMethod="reflect"
       gradientTransform="translate(3.0955236,-25.749128)" />
  </defs>
  <g
     inkscape:label="Layer 1"
     inkscape:groupmode="layer"
     id="layer1"
     transform="translate(-70.257149,-66.954765)">
    <path
       id="text1"
       style="font-style:normal;font-variant:normal;font-weight:normal;font-stretch:normal;font-size:63.6711px;font-family:'Ubuntu Mono derivative Powerline';-inkscape-font-specification:'Ubuntu Mono derivative Powerline, Normal';font-variant-ligatures:normal;font-variant-caps:normal;font-variant-numeric:normal;font-variant-east-asian:normal;opacity:1;fill:url(#linearGradient2216);stroke-width:5.285;stroke-dasharray:none"
       d="m 106.74804,67.072044 c -0.69111,0.05557 -1.46863,0.137185 -2.33252,0.244921 -0.82069,0.104278 -1.68432,0.230989 -2.5914,0.380471 -0.86389,0.107735 -1.72803,0.253578 -2.591922,0.437859 -0.820696,0.180807 -1.554904,0.373992 -2.202822,0.579174 v 34.442861 c 0.647918,0.10098 1.403523,0.17437 2.267415,0.21971 0.863889,0.0453 1.728029,0.0522 2.591919,0.021 0.86389,0.007 1.72751,-0.005 2.5914,-0.0358 0.86389,-0.0311 1.62001,-0.0728 2.26793,-0.12499 5.5721,-0.44805 9.63241,-1.67387 12.18089,-3.677498 2.54848,-2.00362 3.82277,-4.7659 3.82277,-8.28676 0,-2.29622 -0.75613,-4.09185 -2.26792,-5.38629 -1.46862,-1.33616 -3.3044,-2.18334 -5.50731,-2.54197 0.82069,-0.33389 1.57681,-0.77753 2.26792,-1.33062 0.7343,-0.59483 1.3605,-1.25764 1.87883,-1.98817 0.56153,-0.73402 0.9936,-1.49576 1.29596,-2.28549 0.30237,-0.82797 0.45368,-1.66311 0.45368,-2.50506 0,-1.760414 -0.36734,-3.203965 -1.10166,-4.331287 -0.69112,-1.130808 -1.68466,-2.007515 -2.98049,-2.63044 -1.25266,-0.626405 -2.74298,-1.023566 -4.47076,-1.190797 -1.72779,-0.167231 -3.58496,-0.170615 -5.57191,-0.01084 z m -31.360875,3.050945 v 4.005438 l 14.829197,-1.192439 v 19.570384 c 0,3.09007 -0.74966,5.34421 -2.248961,6.76184 -1.452447,1.413858 -3.678049,2.241358 -6.676651,2.482488 -1.967831,0.15823 -3.701452,-0.008 -5.200754,-0.4975 -1.452446,-0.49359 -2.623437,-0.97165 -3.513648,-1.434158 l -2.319193,4.020368 c 0.89021,0.5388 2.295503,1.05513 4.216482,1.5492 1.920978,0.49406 4.287365,0.62831 7.098555,0.40226 2.811188,-0.22605 5.130304,-0.71785 6.957578,-1.47518 1.874125,-0.79922 3.350067,-1.77624 4.427689,-2.93107 1.124476,-1.19675 1.897515,-2.556008 2.319193,-4.077718 0.468531,-1.52549 0.702833,-3.12754 0.702833,-4.8061 V 68.467129 Z m 31.684865,0.941363 c 1.12306,-0.0903 2.18132,-0.07996 3.1748,0.03151 1.03666,0.107991 1.9436,0.360119 2.7211,0.756846 0.77749,0.396718 1.4042,0.93968 1.87934,1.628602 0.47514,0.688933 0.71257,1.550077 0.71257,2.583367 0,1.10984 -0.25934,2.04912 -0.77767,2.81793 -0.51833,0.76881 -1.20924,1.39864 -2.07313,1.88908 -0.86389,0.49044 -1.83604,0.87458 -2.9159,1.15276 -1.07987,0.27819 -2.15953,0.46096 -3.23939,0.5478 l -4.21135,0.33864 V 71.616751 c 0.34555,-0.104322 0.92843,-0.189381 1.74913,-0.255375 0.86389,-0.107735 1.85744,-0.206719 2.9805,-0.297027 z m -4.72963,15.64967 5.44221,-0.43761 c 1.25263,-0.10078 2.46222,-0.0829 3.62847,0.0529 1.16625,0.0976 2.18121,0.36063 3.04509,0.78867 0.90709,0.3863 1.6199,0.96001 2.13823,1.72201 0.56153,0.75852 0.84228,1.73124 0.84228,2.91761 0,1.33945 -0.30213,2.45451 -0.90686,3.34508 -0.56154,0.88709 -1.31766,1.6367 -2.26793,2.24891 -0.95028,0.57392 -2.05186,1.00665 -3.30449,1.29872 -1.20946,0.28862 -2.48375,0.48705 -3.82277,0.59472 -1.33904,0.10769 -2.46201,0.17887 -3.36909,0.21351 -0.86389,-0.007 -1.33875,-0.0267 -1.42514,-0.058 z"
       inkscape:export-filename="text1.svg"
       inkscape:export-xdpi="96"
       inkscape:export-ydpi="96" />
  </g>
</svg>
